<?xml version="1.0" encoding="UTF-8"?>
<svg xmlns="http://www.w3.org/2000/svg" width="256" height="256" viewBox="0 0 256 256">
  <rect width="256" height="256" rx="30" fill="#2d3748"/>
  <g transform="translate(128,128)">
    <path fill="#e8e8e8" fill-rule="evenodd" d="
      M -14 -96
      L 14 -96
      L 18 -74
      A 74 74 0 0 1 42 -64
      L 60 -78
      L 80 -58
      L 66 -40
      A 74 74 0 0 1 76 -16
      L 98 -12
      L 98 12
      L 76 16
      A 74 74 0 0 1 66 40
      L 80 58
      L 60 78
      L 42 64
      A 74 74 0 0 1 18 74
      L 14 96
      L -14 96
      L -18 74
      A 74 74 0 0 1 -42 64
      L -60 78
      L -80 58
      L -66 40
      A 74 74 0 0 1 -76 16
      L -98 12
      L -98 -12
      L -76 -16
      A 74 74 0 0 1 -66 -40
      L -80 -58
      L -60 -78
      L -42 -64
      A 74 74 0 0 1 -18 -74
      Z
      M 0 -32
      A 32 32 0 1 0 0 32
      A 32 32 0 1 0 0 -32
      Z
    "/>
  </g>
</svg>
